<?xml version="1.0" encoding="utf-8"?>
<!-- Generator: Adobe Illustrator 24.3.0, SVG Export Plug-In . SVG Version: 6.00 Build 0)  -->
<svg version="1.1" id="Lag_1" xmlns="http://www.w3.org/2000/svg" xmlns:xlink="http://www.w3.org/1999/xlink" x="0px" y="0px"
	 viewBox="0 0 1920 1080" style="enable-background:new 0 0 1920 1080;" xml:space="preserve">
<style type="text/css">
	.st0{fill:#252425;}
</style>
<g id="Group_2" transform="translate(0 -695)">
	<circle id="Ellipse_1" class="st0" cx="7.22" cy="1496.49" r="7"/>
	<circle id="Ellipse_1-2" class="st0" cx="49.22" cy="1496.49" r="7"/>
	<circle id="Ellipse_1-3" class="st0" cx="91.22" cy="1496.49" r="7"/>
	<circle id="Ellipse_1-4" class="st0" cx="133.22" cy="1496.49" r="7"/>
	<circle id="Ellipse_1-5" class="st0" cx="175.22" cy="1496.49" r="7"/>
	<circle id="Ellipse_1-6" class="st0" cx="217.22" cy="1496.49" r="7"/>
	<circle id="Ellipse_1-7" class="st0" cx="259.22" cy="1496.49" r="7"/>
	<circle id="Ellipse_1-8" class="st0" cx="301.22" cy="1496.49" r="7"/>
	<circle id="Ellipse_1-9" class="st0" cx="343.22" cy="1496.49" r="7"/>
	<circle id="Ellipse_1-10" class="st0" cx="384.22" cy="1496.49" r="7"/>
	<circle id="Ellipse_1-11" class="st0" cx="7.22" cy="1530.49" r="7"/>
	<circle id="Ellipse_1-12" class="st0" cx="49.22" cy="1530.49" r="7"/>
	<circle id="Ellipse_1-13" class="st0" cx="91.22" cy="1530.49" r="7"/>
	<circle id="Ellipse_1-14" class="st0" cx="133.22" cy="1530.49" r="7"/>
	<circle id="Ellipse_1-15" class="st0" cx="175.22" cy="1530.49" r="7"/>
	<circle id="Ellipse_1-16" class="st0" cx="217.22" cy="1530.49" r="7"/>
	<circle id="Ellipse_1-17" class="st0" cx="259.22" cy="1530.49" r="7"/>
	<circle id="Ellipse_1-18" class="st0" cx="301.22" cy="1530.49" r="7"/>
	<circle id="Ellipse_1-19" class="st0" cx="343.22" cy="1530.49" r="7"/>
	<circle id="Ellipse_1-20" class="st0" cx="384.22" cy="1530.49" r="7"/>
	<circle id="Ellipse_1-21" class="st0" cx="426.22" cy="1530.49" r="7"/>
	<circle id="Ellipse_1-22" class="st0" cx="468.22" cy="1530.49" r="7"/>
	<circle id="Ellipse_1-23" class="st0" cx="510.22" cy="1530.49" r="7"/>
	<circle id="Ellipse_1-24" class="st0" cx="552.22" cy="1530.49" r="7"/>
	<circle id="Ellipse_1-25" class="st0" cx="594.22" cy="1530.49" r="7"/>
	<circle id="Ellipse_1-26" class="st0" cx="636.22" cy="1530.49" r="7"/>
	<circle id="Ellipse_1-27" class="st0" cx="678.22" cy="1530.49" r="7"/>
	<circle id="Ellipse_1-28" class="st0" cx="720.22" cy="1530.49" r="7"/>
	<circle id="Ellipse_1-29" class="st0" cx="762.22" cy="1530.49" r="7"/>
	<circle id="Ellipse_1-30" class="st0" cx="7.22" cy="1564.49" r="7"/>
	<circle id="Ellipse_1-31" class="st0" cx="49.22" cy="1564.49" r="7"/>
	<circle id="Ellipse_1-32" class="st0" cx="91.22" cy="1564.49" r="7"/>
	<circle id="Ellipse_1-33" class="st0" cx="133.22" cy="1564.49" r="7"/>
	<circle id="Ellipse_1-34" class="st0" cx="175.22" cy="1564.49" r="7"/>
	<circle id="Ellipse_1-35" class="st0" cx="217.22" cy="1564.49" r="7"/>
	<circle id="Ellipse_1-36" class="st0" cx="259.22" cy="1564.49" r="7"/>
	<circle id="Ellipse_1-37" class="st0" cx="301.22" cy="1564.49" r="7"/>
	<circle id="Ellipse_1-38" class="st0" cx="343.22" cy="1564.49" r="7"/>
	<circle id="Ellipse_1-39" class="st0" cx="384.22" cy="1564.49" r="7"/>
	<circle id="Ellipse_1-40" class="st0" cx="426.22" cy="1564.49" r="7"/>
	<circle id="Ellipse_1-41" class="st0" cx="468.22" cy="1564.49" r="7"/>
	<circle id="Ellipse_1-42" class="st0" cx="510.22" cy="1564.49" r="7"/>
	<circle id="Ellipse_1-43" class="st0" cx="552.22" cy="1564.49" r="7"/>
	<circle id="Ellipse_1-44" class="st0" cx="594.22" cy="1564.49" r="7"/>
	<circle id="Ellipse_1-45" class="st0" cx="636.22" cy="1564.49" r="7"/>
	<circle id="Ellipse_1-46" class="st0" cx="678.22" cy="1564.49" r="7"/>
	<circle id="Ellipse_1-47" class="st0" cx="720.22" cy="1564.49" r="7"/>
	<circle id="Ellipse_1-48" class="st0" cx="762.22" cy="1564.49" r="7"/>
	<circle id="Ellipse_1-49" class="st0" cx="804.22" cy="1564.49" r="7"/>
	<circle id="Ellipse_1-50" class="st0" cx="846.22" cy="1564.49" r="7"/>
	<circle id="Ellipse_1-51" class="st0" cx="888.22" cy="1564.49" r="7"/>
	<circle id="Ellipse_1-52" class="st0" cx="930.22" cy="1564.49" r="7"/>
	<circle id="Ellipse_1-53" class="st0" cx="971.22" cy="1564.49" r="7"/>
	<circle id="Ellipse_1-54" class="st0" cx="1013.22" cy="1564.49" r="7"/>
	<circle id="Ellipse_1-55" class="st0" cx="1055.22" cy="1564.49" r="7"/>
	<circle id="Ellipse_1-56" class="st0" cx="1097.22" cy="1564.49" r="7"/>
	<circle id="Ellipse_1-57" class="st0" cx="1139.22" cy="1564.49" r="7"/>
	<circle id="Ellipse_1-58" class="st0" cx="7.22" cy="1598.49" r="7"/>
	<circle id="Ellipse_1-59" class="st0" cx="49.22" cy="1598.49" r="7"/>
	<circle id="Ellipse_1-60" class="st0" cx="91.22" cy="1598.49" r="7"/>
	<circle id="Ellipse_1-61" class="st0" cx="133.22" cy="1598.49" r="7"/>
	<circle id="Ellipse_1-62" class="st0" cx="175.22" cy="1598.49" r="7"/>
	<circle id="Ellipse_1-63" class="st0" cx="217.22" cy="1598.49" r="7"/>
	<circle id="Ellipse_1-64" class="st0" cx="259.22" cy="1598.49" r="7"/>
	<circle id="Ellipse_1-65" class="st0" cx="301.22" cy="1598.49" r="7"/>
	<circle id="Ellipse_1-66" class="st0" cx="343.22" cy="1598.49" r="7"/>
	<circle id="Ellipse_1-67" class="st0" cx="384.22" cy="1598.49" r="7"/>
	<circle id="Ellipse_1-68" class="st0" cx="426.22" cy="1598.49" r="7"/>
	<circle id="Ellipse_1-69" class="st0" cx="468.22" cy="1598.49" r="7"/>
	<circle id="Ellipse_1-70" class="st0" cx="510.22" cy="1598.49" r="7"/>
	<circle id="Ellipse_1-71" class="st0" cx="552.22" cy="1598.49" r="7"/>
	<circle id="Ellipse_1-72" class="st0" cx="594.22" cy="1598.49" r="7"/>
	<circle id="Ellipse_1-73" class="st0" cx="636.22" cy="1598.49" r="7"/>
	<circle id="Ellipse_1-74" class="st0" cx="678.22" cy="1598.49" r="7"/>
	<circle id="Ellipse_1-75" class="st0" cx="720.22" cy="1598.49" r="7"/>
	<circle id="Ellipse_1-76" class="st0" cx="762.22" cy="1598.49" r="7"/>
	<circle id="Ellipse_1-77" class="st0" cx="804.22" cy="1598.49" r="7"/>
	<circle id="Ellipse_1-78" class="st0" cx="846.22" cy="1598.49" r="7"/>
	<circle id="Ellipse_1-79" class="st0" cx="888.22" cy="1598.49" r="7"/>
	<circle id="Ellipse_1-80" class="st0" cx="930.22" cy="1598.49" r="7"/>
	<circle id="Ellipse_1-81" class="st0" cx="971.22" cy="1598.49" r="7"/>
	<circle id="Ellipse_1-82" class="st0" cx="1013.22" cy="1598.49" r="7"/>
	<circle id="Ellipse_1-83" class="st0" cx="1055.22" cy="1598.49" r="7"/>
	<circle id="Ellipse_1-84" class="st0" cx="1097.22" cy="1598.49" r="7"/>
	<circle id="Ellipse_1-85" class="st0" cx="1139.22" cy="1598.49" r="7"/>
	<circle id="Ellipse_1-86" class="st0" cx="1181.22" cy="1598.49" r="7"/>
	<circle id="Ellipse_1-87" class="st0" cx="1223.22" cy="1598.49" r="7"/>
	<circle id="Ellipse_1-88" class="st0" cx="1265.22" cy="1598.49" r="7"/>
	<circle id="Ellipse_1-89" class="st0" cx="1307.22" cy="1598.49" r="7"/>
	<circle id="Ellipse_1-90" class="st0" cx="1349.22" cy="1598.49" r="7"/>
	<circle id="Ellipse_1-91" class="st0" cx="1391.22" cy="1598.49" r="7"/>
	<circle id="Ellipse_1-92" class="st0" cx="1433.22" cy="1598.49" r="7"/>
	<circle id="Ellipse_1-93" class="st0" cx="1475.22" cy="1598.49" r="7"/>
	<circle id="Ellipse_1-94" class="st0" cx="1517.22" cy="1598.49" r="7"/>
	<circle id="Ellipse_1-95" class="st0" cx="7.22" cy="1632.49" r="7"/>
	<circle id="Ellipse_1-96" class="st0" cx="49.22" cy="1632.49" r="7"/>
	<circle id="Ellipse_1-97" class="st0" cx="91.22" cy="1632.49" r="7"/>
	<circle id="Ellipse_1-98" class="st0" cx="133.22" cy="1632.49" r="7"/>
	<circle id="Ellipse_1-99" class="st0" cx="175.22" cy="1632.49" r="7"/>
	<circle id="Ellipse_1-100" class="st0" cx="217.22" cy="1632.49" r="7"/>
	<circle id="Ellipse_1-101" class="st0" cx="259.22" cy="1632.49" r="7"/>
	<circle id="Ellipse_1-102" class="st0" cx="301.22" cy="1632.49" r="7"/>
	<circle id="Ellipse_1-103" class="st0" cx="343.22" cy="1632.49" r="7"/>
	<circle id="Ellipse_1-104" class="st0" cx="384.22" cy="1632.49" r="7"/>
	<circle id="Ellipse_1-105" class="st0" cx="426.22" cy="1632.49" r="7"/>
	<circle id="Ellipse_1-106" class="st0" cx="468.22" cy="1632.49" r="7"/>
	<circle id="Ellipse_1-107" class="st0" cx="510.22" cy="1632.49" r="7"/>
	<circle id="Ellipse_1-108" class="st0" cx="552.22" cy="1632.49" r="7"/>
	<circle id="Ellipse_1-109" class="st0" cx="594.22" cy="1632.49" r="7"/>
	<circle id="Ellipse_1-110" class="st0" cx="636.22" cy="1632.49" r="7"/>
	<circle id="Ellipse_1-111" class="st0" cx="678.22" cy="1632.49" r="7"/>
	<circle id="Ellipse_1-112" class="st0" cx="720.22" cy="1632.49" r="7"/>
	<circle id="Ellipse_1-113" class="st0" cx="762.22" cy="1632.49" r="7"/>
	<circle id="Ellipse_1-114" class="st0" cx="804.22" cy="1632.49" r="7"/>
	<circle id="Ellipse_1-115" class="st0" cx="846.22" cy="1632.49" r="7"/>
	<circle id="Ellipse_1-116" class="st0" cx="888.22" cy="1632.49" r="7"/>
	<circle id="Ellipse_1-117" class="st0" cx="930.22" cy="1632.49" r="7"/>
	<circle id="Ellipse_1-118" class="st0" cx="971.22" cy="1632.49" r="7"/>
	<circle id="Ellipse_1-119" class="st0" cx="1013.22" cy="1632.49" r="7"/>
	<circle id="Ellipse_1-120" class="st0" cx="1055.22" cy="1632.49" r="7"/>
	<circle id="Ellipse_1-121" class="st0" cx="1097.22" cy="1632.49" r="7"/>
	<circle id="Ellipse_1-122" class="st0" cx="1139.22" cy="1632.49" r="7"/>
	<circle id="Ellipse_1-123" class="st0" cx="1181.22" cy="1632.49" r="7"/>
	<circle id="Ellipse_1-124" class="st0" cx="1223.22" cy="1632.49" r="7"/>
	<circle id="Ellipse_1-125" class="st0" cx="1265.22" cy="1632.49" r="7"/>
	<circle id="Ellipse_1-126" class="st0" cx="1307.22" cy="1632.49" r="7"/>
	<circle id="Ellipse_1-127" class="st0" cx="1349.22" cy="1632.49" r="7"/>
	<circle id="Ellipse_1-128" class="st0" cx="1391.22" cy="1632.49" r="7"/>
	<circle id="Ellipse_1-129" class="st0" cx="1433.22" cy="1632.49" r="7"/>
	<circle id="Ellipse_1-130" class="st0" cx="1475.22" cy="1632.49" r="7"/>
	<circle id="Ellipse_1-131" class="st0" cx="1517.22" cy="1632.49" r="7"/>
	<circle id="Ellipse_1-132" class="st0" cx="1558.22" cy="1632.49" r="7"/>
	<circle id="Ellipse_1-133" class="st0" cx="1600.22" cy="1632.49" r="7"/>
	<circle id="Ellipse_1-134" class="st0" cx="1642.22" cy="1632.49" r="7"/>
	<circle id="Ellipse_1-135" class="st0" cx="1684.22" cy="1632.49" r="7"/>
	<circle id="Ellipse_1-136" class="st0" cx="1726.22" cy="1632.49" r="7"/>
	<circle id="Ellipse_1-137" class="st0" cx="1768.22" cy="1632.49" r="7"/>
	<circle id="Ellipse_1-138" class="st0" cx="1810.22" cy="1632.49" r="7"/>
	<circle id="Ellipse_1-139" class="st0" cx="1852.22" cy="1632.49" r="7"/>
	<circle id="Ellipse_1-140" class="st0" cx="1894.22" cy="1632.49" r="7"/>
	<circle id="Ellipse_1-141" class="st0" cx="7.22" cy="1666.49" r="7"/>
	<circle id="Ellipse_1-142" class="st0" cx="49.22" cy="1666.49" r="7"/>
	<circle id="Ellipse_1-143" class="st0" cx="91.22" cy="1666.49" r="7"/>
	<circle id="Ellipse_1-144" class="st0" cx="133.22" cy="1666.49" r="7"/>
	<circle id="Ellipse_1-145" class="st0" cx="175.22" cy="1666.49" r="7"/>
	<circle id="Ellipse_1-146" class="st0" cx="217.22" cy="1666.49" r="7"/>
	<circle id="Ellipse_1-147" class="st0" cx="259.22" cy="1666.49" r="7"/>
	<circle id="Ellipse_1-148" class="st0" cx="301.22" cy="1666.49" r="7"/>
	<circle id="Ellipse_1-149" class="st0" cx="343.22" cy="1666.49" r="7"/>
	<circle id="Ellipse_1-150" class="st0" cx="384.22" cy="1666.49" r="7"/>
	<circle id="Ellipse_1-151" class="st0" cx="426.22" cy="1666.49" r="7"/>
	<circle id="Ellipse_1-152" class="st0" cx="468.22" cy="1666.49" r="7"/>
	<circle id="Ellipse_1-153" class="st0" cx="510.22" cy="1666.49" r="7"/>
	<circle id="Ellipse_1-154" class="st0" cx="552.22" cy="1666.49" r="7"/>
	<circle id="Ellipse_1-155" class="st0" cx="594.22" cy="1666.49" r="7"/>
	<circle id="Ellipse_1-156" class="st0" cx="636.22" cy="1666.49" r="7"/>
	<circle id="Ellipse_1-157" class="st0" cx="678.22" cy="1666.49" r="7"/>
	<circle id="Ellipse_1-158" class="st0" cx="720.22" cy="1666.49" r="7"/>
	<circle id="Ellipse_1-159" class="st0" cx="762.22" cy="1666.49" r="7"/>
	<circle id="Ellipse_1-160" class="st0" cx="804.22" cy="1666.49" r="7"/>
	<circle id="Ellipse_1-161" class="st0" cx="846.22" cy="1666.49" r="7"/>
	<circle id="Ellipse_1-162" class="st0" cx="888.22" cy="1666.49" r="7"/>
	<circle id="Ellipse_1-163" class="st0" cx="930.22" cy="1666.49" r="7"/>
	<circle id="Ellipse_1-164" class="st0" cx="971.22" cy="1666.49" r="7"/>
	<circle id="Ellipse_1-165" class="st0" cx="1013.22" cy="1666.49" r="7"/>
	<circle id="Ellipse_1-166" class="st0" cx="1055.22" cy="1666.49" r="7"/>
	<circle id="Ellipse_1-167" class="st0" cx="1097.22" cy="1666.49" r="7"/>
	<circle id="Ellipse_1-168" class="st0" cx="1139.22" cy="1666.49" r="7"/>
	<circle id="Ellipse_1-169" class="st0" cx="1181.22" cy="1666.49" r="7"/>
	<circle id="Ellipse_1-170" class="st0" cx="1223.22" cy="1666.49" r="7"/>
	<circle id="Ellipse_1-171" class="st0" cx="1265.22" cy="1666.49" r="7"/>
	<circle id="Ellipse_1-172" class="st0" cx="1307.22" cy="1666.49" r="7"/>
	<circle id="Ellipse_1-173" class="st0" cx="1349.22" cy="1666.49" r="7"/>
	<circle id="Ellipse_1-174" class="st0" cx="1391.22" cy="1666.49" r="7"/>
	<circle id="Ellipse_1-175" class="st0" cx="1433.22" cy="1666.49" r="7"/>
	<circle id="Ellipse_1-176" class="st0" cx="1475.22" cy="1666.49" r="7"/>
	<circle id="Ellipse_1-177" class="st0" cx="1517.22" cy="1666.49" r="7"/>
	<circle id="Ellipse_1-178" class="st0" cx="1558.22" cy="1666.49" r="7"/>
	<circle id="Ellipse_1-179" class="st0" cx="1600.22" cy="1666.49" r="7"/>
	<circle id="Ellipse_1-180" class="st0" cx="1642.22" cy="1666.49" r="7"/>
	<circle id="Ellipse_1-181" class="st0" cx="1684.22" cy="1666.49" r="7"/>
	<circle id="Ellipse_1-182" class="st0" cx="1726.22" cy="1666.49" r="7"/>
	<circle id="Ellipse_1-183" class="st0" cx="1768.22" cy="1666.49" r="7"/>
	<circle id="Ellipse_1-184" class="st0" cx="1810.22" cy="1666.49" r="7"/>
	<circle id="Ellipse_1-185" class="st0" cx="1852.22" cy="1666.49" r="7"/>
	<circle id="Ellipse_1-186" class="st0" cx="1894.22" cy="1666.49" r="7"/>
	<circle id="Ellipse_1-187" class="st0" cx="7.22" cy="1700.49" r="7"/>
	<circle id="Ellipse_1-188" class="st0" cx="49.22" cy="1700.49" r="7"/>
	<circle id="Ellipse_1-189" class="st0" cx="91.22" cy="1700.49" r="7"/>
	<circle id="Ellipse_1-190" class="st0" cx="133.22" cy="1700.49" r="7"/>
	<circle id="Ellipse_1-191" class="st0" cx="175.22" cy="1700.49" r="7"/>
	<circle id="Ellipse_1-192" class="st0" cx="217.22" cy="1700.49" r="7"/>
	<circle id="Ellipse_1-193" class="st0" cx="259.22" cy="1700.49" r="7"/>
	<circle id="Ellipse_1-194" class="st0" cx="301.22" cy="1700.49" r="7"/>
	<circle id="Ellipse_1-195" class="st0" cx="343.22" cy="1700.49" r="7"/>
	<circle id="Ellipse_1-196" class="st0" cx="384.22" cy="1700.49" r="7"/>
	<circle id="Ellipse_1-197" class="st0" cx="426.22" cy="1700.49" r="7"/>
	<circle id="Ellipse_1-198" class="st0" cx="468.22" cy="1700.49" r="7"/>
	<circle id="Ellipse_1-199" class="st0" cx="510.22" cy="1700.49" r="7"/>
	<circle id="Ellipse_1-200" class="st0" cx="552.22" cy="1700.49" r="7"/>
	<circle id="Ellipse_1-201" class="st0" cx="594.22" cy="1700.49" r="7"/>
	<circle id="Ellipse_1-202" class="st0" cx="636.22" cy="1700.49" r="7"/>
	<circle id="Ellipse_1-203" class="st0" cx="678.22" cy="1700.49" r="7"/>
	<circle id="Ellipse_1-204" class="st0" cx="720.22" cy="1700.49" r="7"/>
	<circle id="Ellipse_1-205" class="st0" cx="762.22" cy="1700.49" r="7"/>
	<circle id="Ellipse_1-206" class="st0" cx="804.22" cy="1700.49" r="7"/>
	<circle id="Ellipse_1-207" class="st0" cx="846.22" cy="1700.49" r="7"/>
	<circle id="Ellipse_1-208" class="st0" cx="888.22" cy="1700.49" r="7"/>
	<circle id="Ellipse_1-209" class="st0" cx="930.22" cy="1700.49" r="7"/>
	<circle id="Ellipse_1-210" class="st0" cx="971.22" cy="1700.49" r="7"/>
	<circle id="Ellipse_1-211" class="st0" cx="1013.22" cy="1700.49" r="7"/>
	<circle id="Ellipse_1-212" class="st0" cx="1055.22" cy="1700.49" r="7"/>
	<circle id="Ellipse_1-213" class="st0" cx="1097.22" cy="1700.49" r="7"/>
	<circle id="Ellipse_1-214" class="st0" cx="1139.22" cy="1700.49" r="7"/>
	<circle id="Ellipse_1-215" class="st0" cx="1181.22" cy="1700.49" r="7"/>
	<circle id="Ellipse_1-216" class="st0" cx="1223.22" cy="1700.49" r="7"/>
	<circle id="Ellipse_1-217" class="st0" cx="1265.22" cy="1700.49" r="7"/>
	<circle id="Ellipse_1-218" class="st0" cx="1307.22" cy="1700.49" r="7"/>
	<circle id="Ellipse_1-219" class="st0" cx="1349.22" cy="1700.49" r="7"/>
	<circle id="Ellipse_1-220" class="st0" cx="1391.22" cy="1700.49" r="7"/>
	<circle id="Ellipse_1-221" class="st0" cx="1433.22" cy="1700.49" r="7"/>
	<circle id="Ellipse_1-222" class="st0" cx="1475.22" cy="1700.49" r="7"/>
	<circle id="Ellipse_1-223" class="st0" cx="1517.22" cy="1700.49" r="7"/>
	<circle id="Ellipse_1-224" class="st0" cx="1558.22" cy="1700.49" r="7"/>
	<circle id="Ellipse_1-225" class="st0" cx="1600.22" cy="1700.49" r="7"/>
	<circle id="Ellipse_1-226" class="st0" cx="1642.22" cy="1700.49" r="7"/>
	<circle id="Ellipse_1-227" class="st0" cx="1684.22" cy="1700.49" r="7"/>
	<circle id="Ellipse_1-228" class="st0" cx="1726.22" cy="1700.49" r="7"/>
	<circle id="Ellipse_1-229" class="st0" cx="1768.22" cy="1700.49" r="7"/>
	<circle id="Ellipse_1-230" class="st0" cx="1810.22" cy="1700.49" r="7"/>
	<circle id="Ellipse_1-231" class="st0" cx="1852.22" cy="1700.49" r="7"/>
	<circle id="Ellipse_1-232" class="st0" cx="1894.22" cy="1700.49" r="7"/>
	<circle id="Ellipse_1-233" class="st0" cx="7.22" cy="1734.49" r="7"/>
	<circle id="Ellipse_1-234" class="st0" cx="49.22" cy="1734.49" r="7"/>
	<circle id="Ellipse_1-235" class="st0" cx="91.22" cy="1734.49" r="7"/>
	<circle id="Ellipse_1-236" class="st0" cx="133.22" cy="1734.49" r="7"/>
	<circle id="Ellipse_1-237" class="st0" cx="175.22" cy="1734.49" r="7"/>
	<circle id="Ellipse_1-238" class="st0" cx="217.22" cy="1734.49" r="7"/>
	<circle id="Ellipse_1-239" class="st0" cx="259.22" cy="1734.49" r="7"/>
	<circle id="Ellipse_1-240" class="st0" cx="301.22" cy="1734.49" r="7"/>
	<circle id="Ellipse_1-241" class="st0" cx="343.22" cy="1734.49" r="7"/>
	<circle id="Ellipse_1-242" class="st0" cx="384.22" cy="1734.49" r="7"/>
	<circle id="Ellipse_1-243" class="st0" cx="426.22" cy="1734.49" r="7"/>
	<circle id="Ellipse_1-244" class="st0" cx="468.22" cy="1734.49" r="7"/>
	<circle id="Ellipse_1-245" class="st0" cx="510.22" cy="1734.49" r="7"/>
	<circle id="Ellipse_1-246" class="st0" cx="552.22" cy="1734.49" r="7"/>
	<circle id="Ellipse_1-247" class="st0" cx="594.22" cy="1734.49" r="7"/>
	<circle id="Ellipse_1-248" class="st0" cx="636.22" cy="1734.49" r="7"/>
	<circle id="Ellipse_1-249" class="st0" cx="678.22" cy="1734.49" r="7"/>
	<circle id="Ellipse_1-250" class="st0" cx="720.22" cy="1734.49" r="7"/>
	<circle id="Ellipse_1-251" class="st0" cx="762.22" cy="1734.49" r="7"/>
	<circle id="Ellipse_1-252" class="st0" cx="804.22" cy="1734.49" r="7"/>
	<circle id="Ellipse_1-253" class="st0" cx="846.22" cy="1734.49" r="7"/>
	<circle id="Ellipse_1-254" class="st0" cx="888.22" cy="1734.49" r="7"/>
	<circle id="Ellipse_1-255" class="st0" cx="930.22" cy="1734.49" r="7"/>
	<circle id="Ellipse_1-256" class="st0" cx="971.22" cy="1734.49" r="7"/>
	<circle id="Ellipse_1-257" class="st0" cx="1013.22" cy="1734.49" r="7"/>
	<circle id="Ellipse_1-258" class="st0" cx="1055.22" cy="1734.49" r="7"/>
	<circle id="Ellipse_1-259" class="st0" cx="1097.22" cy="1734.49" r="7"/>
	<circle id="Ellipse_1-260" class="st0" cx="1139.22" cy="1734.49" r="7"/>
	<circle id="Ellipse_1-261" class="st0" cx="1181.22" cy="1734.49" r="7"/>
	<circle id="Ellipse_1-262" class="st0" cx="1223.22" cy="1734.49" r="7"/>
	<circle id="Ellipse_1-263" class="st0" cx="1265.22" cy="1734.49" r="7"/>
	<circle id="Ellipse_1-264" class="st0" cx="1307.22" cy="1734.49" r="7"/>
	<circle id="Ellipse_1-265" class="st0" cx="1349.22" cy="1734.49" r="7"/>
	<circle id="Ellipse_1-266" class="st0" cx="1391.22" cy="1734.49" r="7"/>
	<circle id="Ellipse_1-267" class="st0" cx="1433.22" cy="1734.49" r="7"/>
	<circle id="Ellipse_1-268" class="st0" cx="1475.22" cy="1734.49" r="7"/>
	<circle id="Ellipse_1-269" class="st0" cx="1517.22" cy="1734.49" r="7"/>
	<circle id="Ellipse_1-270" class="st0" cx="1558.22" cy="1734.49" r="7"/>
	<circle id="Ellipse_1-271" class="st0" cx="1600.22" cy="1734.49" r="7"/>
	<circle id="Ellipse_1-272" class="st0" cx="1642.22" cy="1734.49" r="7"/>
	<circle id="Ellipse_1-273" class="st0" cx="1684.22" cy="1734.49" r="7"/>
	<circle id="Ellipse_1-274" class="st0" cx="1726.22" cy="1734.49" r="7"/>
	<circle id="Ellipse_1-275" class="st0" cx="1768.22" cy="1734.49" r="7"/>
	<circle id="Ellipse_1-276" class="st0" cx="1810.22" cy="1734.49" r="7"/>
	<circle id="Ellipse_1-277" class="st0" cx="1852.22" cy="1734.49" r="7"/>
	<circle id="Ellipse_1-278" class="st0" cx="1894.22" cy="1734.49" r="7"/>
	<circle id="Ellipse_1-279" class="st0" cx="7.22" cy="1768.49" r="7"/>
	<circle id="Ellipse_1-280" class="st0" cx="49.22" cy="1768.49" r="7"/>
	<circle id="Ellipse_1-281" class="st0" cx="91.22" cy="1768.49" r="7"/>
	<circle id="Ellipse_1-282" class="st0" cx="133.22" cy="1768.49" r="7"/>
	<circle id="Ellipse_1-283" class="st0" cx="175.22" cy="1768.49" r="7"/>
	<circle id="Ellipse_1-284" class="st0" cx="217.22" cy="1768.49" r="7"/>
	<circle id="Ellipse_1-285" class="st0" cx="259.22" cy="1768.49" r="7"/>
	<circle id="Ellipse_1-286" class="st0" cx="301.22" cy="1768.49" r="7"/>
	<circle id="Ellipse_1-287" class="st0" cx="343.22" cy="1768.49" r="7"/>
	<circle id="Ellipse_1-288" class="st0" cx="384.22" cy="1768.49" r="7"/>
	<circle id="Ellipse_1-289" class="st0" cx="426.22" cy="1768.49" r="7"/>
	<circle id="Ellipse_1-290" class="st0" cx="468.22" cy="1768.49" r="7"/>
	<circle id="Ellipse_1-291" class="st0" cx="510.22" cy="1768.49" r="7"/>
	<circle id="Ellipse_1-292" class="st0" cx="552.22" cy="1768.49" r="7"/>
	<circle id="Ellipse_1-293" class="st0" cx="594.22" cy="1768.49" r="7"/>
	<circle id="Ellipse_1-294" class="st0" cx="636.22" cy="1768.49" r="7"/>
	<circle id="Ellipse_1-295" class="st0" cx="678.22" cy="1768.49" r="7"/>
	<circle id="Ellipse_1-296" class="st0" cx="720.22" cy="1768.49" r="7"/>
	<circle id="Ellipse_1-297" class="st0" cx="762.22" cy="1768.49" r="7"/>
	<circle id="Ellipse_1-298" class="st0" cx="804.22" cy="1768.49" r="7"/>
	<circle id="Ellipse_1-299" class="st0" cx="846.22" cy="1768.49" r="7"/>
	<circle id="Ellipse_1-300" class="st0" cx="888.22" cy="1768.49" r="7"/>
	<circle id="Ellipse_1-301" class="st0" cx="930.22" cy="1768.49" r="7"/>
	<circle id="Ellipse_1-302" class="st0" cx="971.22" cy="1768.49" r="7"/>
	<circle id="Ellipse_1-303" class="st0" cx="1013.22" cy="1768.49" r="7"/>
	<circle id="Ellipse_1-304" class="st0" cx="1055.22" cy="1768.49" r="7"/>
	<circle id="Ellipse_1-305" class="st0" cx="1097.22" cy="1768.49" r="7"/>
	<circle id="Ellipse_1-306" class="st0" cx="1139.22" cy="1768.49" r="7"/>
	<circle id="Ellipse_1-307" class="st0" cx="1181.22" cy="1768.49" r="7"/>
	<circle id="Ellipse_1-308" class="st0" cx="1223.22" cy="1768.49" r="7"/>
	<circle id="Ellipse_1-309" class="st0" cx="1265.22" cy="1768.49" r="7"/>
	<circle id="Ellipse_1-310" class="st0" cx="1307.22" cy="1768.49" r="7"/>
	<circle id="Ellipse_1-311" class="st0" cx="1349.22" cy="1768.49" r="7"/>
	<circle id="Ellipse_1-312" class="st0" cx="1391.22" cy="1768.49" r="7"/>
	<circle id="Ellipse_1-313" class="st0" cx="1433.22" cy="1768.49" r="7"/>
	<circle id="Ellipse_1-314" class="st0" cx="1475.22" cy="1768.49" r="7"/>
	<circle id="Ellipse_1-315" class="st0" cx="1517.22" cy="1768.49" r="7"/>
	<circle id="Ellipse_1-316" class="st0" cx="1558.22" cy="1768.49" r="7"/>
	<circle id="Ellipse_1-317" class="st0" cx="1600.22" cy="1768.49" r="7"/>
	<circle id="Ellipse_1-318" class="st0" cx="1642.22" cy="1768.49" r="7"/>
	<circle id="Ellipse_1-319" class="st0" cx="1684.22" cy="1768.49" r="7"/>
	<circle id="Ellipse_1-320" class="st0" cx="1726.22" cy="1768.49" r="7"/>
	<circle id="Ellipse_1-321" class="st0" cx="1768.22" cy="1768.49" r="7"/>
	<circle id="Ellipse_1-322" class="st0" cx="1810.22" cy="1768.49" r="7"/>
	<circle id="Ellipse_1-323" class="st0" cx="1852.22" cy="1768.49" r="7"/>
	<circle id="Ellipse_1-324" class="st0" cx="1894.22" cy="1768.49" r="7"/>
</g>
</svg>
