<svg id="Lag_1" data-name="Lag 1" xmlns="http://www.w3.org/2000/svg" xmlns:xlink="http://www.w3.org/1999/xlink" viewBox="0 0 1920 291.04"><defs><style>.cls-1,.cls-8{fill:none;}.cls-2{fill:#2a2a2a;}.cls-3{clip-path:url(#clip-path);}.cls-4{fill:url(#Ikke-navngivet_forløb_7);}.cls-5,.cls-6,.cls-7,.cls-8{stroke:#707070;}.cls-5{fill:url(#Ikke-navngivet_forløb_2);}.cls-6{fill:url(#Ikke-navngivet_forløb_3);}.cls-7{fill:url(#Ikke-navngivet_forløb_4);}</style><clipPath id="clip-path" transform="translate(0.15 -791.75)"><rect class="cls-1" x="-0.15" y="822.29" width="1920" height="260.5"/></clipPath><linearGradient id="Ikke-navngivet_forløb_7" x1="1.21" y1="1079.25" x2="1.21" y2="1078.25" gradientTransform="matrix(1920, 0, 0, -260, -1353.94, 281428.36)" gradientUnits="userSpaceOnUse"><stop offset="0" stop-color="#3a3a3a"/><stop offset="1" stop-color="#585858"/></linearGradient><linearGradient id="Ikke-navngivet_forløb_2" x1="0.83" y1="1078.04" x2="0.83" y2="1077.04" gradientTransform="matrix(842, 0, 0, -153.19, 178.06, 166071.39)" gradientUnits="userSpaceOnUse"><stop offset="0" stop-color="#565656"/><stop offset="1" stop-color="#3d3d3d"/></linearGradient><linearGradient id="Ikke-navngivet_forløb_3" x1="0.68" y1="1078.88" x2="0.68" y2="1077.88" gradientTransform="matrix(693.5, 0, 0, -213.81, 615.18, 231543.33)" gradientUnits="userSpaceOnUse"><stop offset="0" stop-color="#5b5b5b"/><stop offset="1" stop-color="#7b7b7b"/></linearGradient><linearGradient id="Ikke-navngivet_forløb_4" x1="0.61" y1="1078.9" x2="0.61" y2="1077.9" gradientTransform="matrix(632.67, 0, 0, -215.78, 1219.39, 233671.85)" gradientUnits="userSpaceOnUse"><stop offset="0" stop-color="#313131"/><stop offset="1" stop-color="#646464"/></linearGradient></defs><g id="Group_2" data-name="Group 2"><circle id="Ellipse_1" data-name="Ellipse 1" class="cls-2" cx="7.21" cy="7.06" r="7.06"/><circle id="Ellipse_1-2" data-name="Ellipse 1-2" class="cls-2" cx="49.59" cy="7.06" r="7.06"/><circle id="Ellipse_1-3" data-name="Ellipse 1-3" class="cls-2" cx="91.96" cy="7.06" r="7.06"/><circle id="Ellipse_1-4" data-name="Ellipse 1-4" class="cls-2" cx="134.33" cy="7.06" r="7.06"/><circle id="Ellipse_1-5" data-name="Ellipse 1-5" class="cls-2" cx="176.7" cy="7.06" r="7.06"/><circle id="Ellipse_1-6" data-name="Ellipse 1-6" class="cls-2" cx="219.08" cy="7.06" r="7.06"/><circle id="Ellipse_1-7" data-name="Ellipse 1-7" class="cls-2" cx="261.45" cy="7.06" r="7.06"/><circle id="Ellipse_1-8" data-name="Ellipse 1-8" class="cls-2" cx="303.82" cy="7.06" r="7.06"/><circle id="Ellipse_1-9" data-name="Ellipse 1-9" class="cls-2" cx="346.19" cy="7.06" r="7.06"/><circle id="Ellipse_1-10" data-name="Ellipse 1-10" class="cls-2" cx="387.56" cy="7.06" r="7.06"/><circle id="Ellipse_1-11" data-name="Ellipse 1-11" class="cls-2" cx="7.21" cy="41.36" r="7.06"/><circle id="Ellipse_1-12" data-name="Ellipse 1-12" class="cls-2" cx="49.59" cy="41.36" r="7.06"/><circle id="Ellipse_1-13" data-name="Ellipse 1-13" class="cls-2" cx="91.96" cy="41.36" r="7.06"/><circle id="Ellipse_1-14" data-name="Ellipse 1-14" class="cls-2" cx="134.33" cy="41.36" r="7.06"/><circle id="Ellipse_1-15" data-name="Ellipse 1-15" class="cls-2" cx="176.7" cy="41.36" r="7.06"/><circle id="Ellipse_1-16" data-name="Ellipse 1-16" class="cls-2" cx="219.08" cy="41.36" r="7.06"/><circle id="Ellipse_1-17" data-name="Ellipse 1-17" class="cls-2" cx="261.45" cy="41.36" r="7.06"/><circle id="Ellipse_1-18" data-name="Ellipse 1-18" class="cls-2" cx="303.82" cy="41.36" r="7.06"/><circle id="Ellipse_1-19" data-name="Ellipse 1-19" class="cls-2" cx="346.19" cy="41.36" r="7.06"/><circle id="Ellipse_1-20" data-name="Ellipse 1-20" class="cls-2" cx="387.56" cy="41.36" r="7.06"/><circle id="Ellipse_1-21" data-name="Ellipse 1-21" class="cls-2" cx="429.93" cy="41.36" r="7.06"/><circle id="Ellipse_1-22" data-name="Ellipse 1-22" class="cls-2" cx="472.3" cy="41.36" r="7.06"/><circle id="Ellipse_1-23" data-name="Ellipse 1-23" class="cls-2" cx="514.67" cy="41.36" r="7.06"/><circle id="Ellipse_1-24" data-name="Ellipse 1-24" class="cls-2" cx="557.04" cy="41.36" r="7.06"/><circle id="Ellipse_1-25" data-name="Ellipse 1-25" class="cls-2" cx="599.42" cy="41.36" r="7.06"/><circle id="Ellipse_1-26" data-name="Ellipse 1-26" class="cls-2" cx="641.79" cy="41.36" r="7.06"/><circle id="Ellipse_1-27" data-name="Ellipse 1-27" class="cls-2" cx="684.16" cy="41.36" r="7.06"/><circle id="Ellipse_1-28" data-name="Ellipse 1-28" class="cls-2" cx="726.53" cy="41.36" r="7.06"/><circle id="Ellipse_1-29" data-name="Ellipse 1-29" class="cls-2" cx="768.91" cy="41.36" r="7.06"/><circle id="Ellipse_1-30" data-name="Ellipse 1-30" class="cls-2" cx="7.21" cy="75.66" r="7.06"/><circle id="Ellipse_1-31" data-name="Ellipse 1-31" class="cls-2" cx="49.59" cy="75.66" r="7.06"/><circle id="Ellipse_1-32" data-name="Ellipse 1-32" class="cls-2" cx="91.96" cy="75.66" r="7.06"/><circle id="Ellipse_1-33" data-name="Ellipse 1-33" class="cls-2" cx="134.33" cy="75.66" r="7.06"/><circle id="Ellipse_1-34" data-name="Ellipse 1-34" class="cls-2" cx="176.7" cy="75.66" r="7.06"/><circle id="Ellipse_1-35" data-name="Ellipse 1-35" class="cls-2" cx="219.08" cy="75.66" r="7.06"/><circle id="Ellipse_1-36" data-name="Ellipse 1-36" class="cls-2" cx="261.45" cy="75.66" r="7.06"/><circle id="Ellipse_1-37" data-name="Ellipse 1-37" class="cls-2" cx="303.82" cy="75.66" r="7.06"/><circle id="Ellipse_1-38" data-name="Ellipse 1-38" class="cls-2" cx="346.19" cy="75.66" r="7.06"/><circle id="Ellipse_1-39" data-name="Ellipse 1-39" class="cls-2" cx="387.56" cy="75.66" r="7.06"/><circle id="Ellipse_1-40" data-name="Ellipse 1-40" class="cls-2" cx="429.93" cy="75.66" r="7.06"/><circle id="Ellipse_1-41" data-name="Ellipse 1-41" class="cls-2" cx="472.3" cy="75.66" r="7.06"/><circle id="Ellipse_1-42" data-name="Ellipse 1-42" class="cls-2" cx="514.67" cy="75.66" r="7.06"/><circle id="Ellipse_1-43" data-name="Ellipse 1-43" class="cls-2" cx="557.04" cy="75.66" r="7.06"/><circle id="Ellipse_1-44" data-name="Ellipse 1-44" class="cls-2" cx="599.42" cy="75.66" r="7.06"/><circle id="Ellipse_1-45" data-name="Ellipse 1-45" class="cls-2" cx="641.79" cy="75.66" r="7.06"/><circle id="Ellipse_1-46" data-name="Ellipse 1-46" class="cls-2" cx="684.16" cy="75.66" r="7.06"/><circle id="Ellipse_1-47" data-name="Ellipse 1-47" class="cls-2" cx="726.53" cy="75.66" r="7.06"/><circle id="Ellipse_1-48" data-name="Ellipse 1-48" class="cls-2" cx="768.91" cy="75.66" r="7.06"/><circle id="Ellipse_1-49" data-name="Ellipse 1-49" class="cls-2" cx="811.28" cy="75.66" r="7.06"/><circle id="Ellipse_1-50" data-name="Ellipse 1-50" class="cls-2" cx="853.65" cy="75.66" r="7.06"/><circle id="Ellipse_1-51" data-name="Ellipse 1-51" class="cls-2" cx="896.02" cy="75.66" r="7.06"/><circle id="Ellipse_1-52" data-name="Ellipse 1-52" class="cls-2" cx="938.39" cy="75.66" r="7.06"/><circle id="Ellipse_1-53" data-name="Ellipse 1-53" class="cls-2" cx="979.76" cy="75.66" r="7.06"/><circle id="Ellipse_1-54" data-name="Ellipse 1-54" class="cls-2" cx="1022.13" cy="75.66" r="7.06"/><circle id="Ellipse_1-55" data-name="Ellipse 1-55" class="cls-2" cx="1064.5" cy="75.66" r="7.06"/><circle id="Ellipse_1-56" data-name="Ellipse 1-56" class="cls-2" cx="1106.87" cy="75.66" r="7.06"/><circle id="Ellipse_1-57" data-name="Ellipse 1-57" class="cls-2" cx="1149.25" cy="75.66" r="7.06"/><circle id="Ellipse_1-58" data-name="Ellipse 1-58" class="cls-2" cx="7.21" cy="109.97" r="7.06"/><circle id="Ellipse_1-59" data-name="Ellipse 1-59" class="cls-2" cx="49.59" cy="109.97" r="7.06"/><circle id="Ellipse_1-60" data-name="Ellipse 1-60" class="cls-2" cx="91.96" cy="109.97" r="7.06"/><circle id="Ellipse_1-61" data-name="Ellipse 1-61" class="cls-2" cx="134.33" cy="109.97" r="7.06"/><circle id="Ellipse_1-62" data-name="Ellipse 1-62" class="cls-2" cx="176.7" cy="109.97" r="7.06"/><circle id="Ellipse_1-63" data-name="Ellipse 1-63" class="cls-2" cx="219.08" cy="109.97" r="7.06"/><circle id="Ellipse_1-64" data-name="Ellipse 1-64" class="cls-2" cx="261.45" cy="109.97" r="7.06"/><circle id="Ellipse_1-65" data-name="Ellipse 1-65" class="cls-2" cx="303.82" cy="109.97" r="7.06"/><circle id="Ellipse_1-66" data-name="Ellipse 1-66" class="cls-2" cx="346.19" cy="109.97" r="7.06"/><circle id="Ellipse_1-67" data-name="Ellipse 1-67" class="cls-2" cx="387.56" cy="109.97" r="7.06"/><circle id="Ellipse_1-68" data-name="Ellipse 1-68" class="cls-2" cx="429.93" cy="109.97" r="7.06"/><circle id="Ellipse_1-69" data-name="Ellipse 1-69" class="cls-2" cx="472.3" cy="109.97" r="7.06"/><circle id="Ellipse_1-70" data-name="Ellipse 1-70" class="cls-2" cx="514.67" cy="109.97" r="7.06"/><circle id="Ellipse_1-71" data-name="Ellipse 1-71" class="cls-2" cx="557.04" cy="109.97" r="7.06"/><circle id="Ellipse_1-72" data-name="Ellipse 1-72" class="cls-2" cx="599.42" cy="109.97" r="7.06"/><circle id="Ellipse_1-73" data-name="Ellipse 1-73" class="cls-2" cx="641.79" cy="109.97" r="7.06"/><circle id="Ellipse_1-74" data-name="Ellipse 1-74" class="cls-2" cx="684.16" cy="109.97" r="7.06"/><circle id="Ellipse_1-75" data-name="Ellipse 1-75" class="cls-2" cx="726.53" cy="109.97" r="7.06"/><circle id="Ellipse_1-76" data-name="Ellipse 1-76" class="cls-2" cx="768.91" cy="109.97" r="7.06"/><circle id="Ellipse_1-77" data-name="Ellipse 1-77" class="cls-2" cx="811.28" cy="109.97" r="7.06"/><circle id="Ellipse_1-78" data-name="Ellipse 1-78" class="cls-2" cx="853.65" cy="109.97" r="7.06"/><circle id="Ellipse_1-79" data-name="Ellipse 1-79" class="cls-2" cx="896.02" cy="109.97" r="7.06"/><circle id="Ellipse_1-80" data-name="Ellipse 1-80" class="cls-2" cx="938.39" cy="109.97" r="7.06"/><circle id="Ellipse_1-81" data-name="Ellipse 1-81" class="cls-2" cx="979.76" cy="109.97" r="7.06"/><circle id="Ellipse_1-82" data-name="Ellipse 1-82" class="cls-2" cx="1022.13" cy="109.97" r="7.06"/><circle id="Ellipse_1-83" data-name="Ellipse 1-83" class="cls-2" cx="1064.5" cy="109.97" r="7.06"/><circle id="Ellipse_1-84" data-name="Ellipse 1-84" class="cls-2" cx="1106.87" cy="109.97" r="7.06"/><circle id="Ellipse_1-85" data-name="Ellipse 1-85" class="cls-2" cx="1149.25" cy="109.97" r="7.06"/><circle id="Ellipse_1-86" data-name="Ellipse 1-86" class="cls-2" cx="1191.62" cy="109.97" r="7.06"/><circle id="Ellipse_1-87" data-name="Ellipse 1-87" class="cls-2" cx="1233.99" cy="109.97" r="7.06"/><circle id="Ellipse_1-88" data-name="Ellipse 1-88" class="cls-2" cx="1276.36" cy="109.97" r="7.06"/><circle id="Ellipse_1-89" data-name="Ellipse 1-89" class="cls-2" cx="1318.74" cy="109.97" r="7.06"/><circle id="Ellipse_1-90" data-name="Ellipse 1-90" class="cls-2" cx="1361.11" cy="109.97" r="7.06"/><circle id="Ellipse_1-91" data-name="Ellipse 1-91" class="cls-2" cx="1403.48" cy="109.97" r="7.06"/><circle id="Ellipse_1-92" data-name="Ellipse 1-92" class="cls-2" cx="1445.85" cy="109.97" r="7.06"/><circle id="Ellipse_1-93" data-name="Ellipse 1-93" class="cls-2" cx="1488.22" cy="109.97" r="7.06"/><circle id="Ellipse_1-94" data-name="Ellipse 1-94" class="cls-2" cx="1530.6" cy="109.97" r="7.06"/><circle id="Ellipse_1-95" data-name="Ellipse 1-95" class="cls-2" cx="7.21" cy="144.27" r="7.06"/><circle id="Ellipse_1-96" data-name="Ellipse 1-96" class="cls-2" cx="49.59" cy="144.27" r="7.06"/><circle id="Ellipse_1-97" data-name="Ellipse 1-97" class="cls-2" cx="91.96" cy="144.27" r="7.06"/><circle id="Ellipse_1-98" data-name="Ellipse 1-98" class="cls-2" cx="134.33" cy="144.27" r="7.06"/><circle id="Ellipse_1-99" data-name="Ellipse 1-99" class="cls-2" cx="176.7" cy="144.27" r="7.06"/><circle id="Ellipse_1-100" data-name="Ellipse 1-100" class="cls-2" cx="219.08" cy="144.27" r="7.06"/><circle id="Ellipse_1-101" data-name="Ellipse 1-101" class="cls-2" cx="261.45" cy="144.27" r="7.06"/><circle id="Ellipse_1-102" data-name="Ellipse 1-102" class="cls-2" cx="303.82" cy="144.27" r="7.06"/><circle id="Ellipse_1-103" data-name="Ellipse 1-103" class="cls-2" cx="346.19" cy="144.27" r="7.06"/><circle id="Ellipse_1-104" data-name="Ellipse 1-104" class="cls-2" cx="387.56" cy="144.27" r="7.06"/><circle id="Ellipse_1-105" data-name="Ellipse 1-105" class="cls-2" cx="429.93" cy="144.27" r="7.06"/><circle id="Ellipse_1-106" data-name="Ellipse 1-106" class="cls-2" cx="472.3" cy="144.27" r="7.06"/><circle id="Ellipse_1-107" data-name="Ellipse 1-107" class="cls-2" cx="514.67" cy="144.27" r="7.06"/><circle id="Ellipse_1-108" data-name="Ellipse 1-108" class="cls-2" cx="557.04" cy="144.27" r="7.06"/><circle id="Ellipse_1-109" data-name="Ellipse 1-109" class="cls-2" cx="599.42" cy="144.27" r="7.06"/><circle id="Ellipse_1-110" data-name="Ellipse 1-110" class="cls-2" cx="641.79" cy="144.27" r="7.06"/><circle id="Ellipse_1-111" data-name="Ellipse 1-111" class="cls-2" cx="684.16" cy="144.27" r="7.06"/><circle id="Ellipse_1-112" data-name="Ellipse 1-112" class="cls-2" cx="726.53" cy="144.27" r="7.06"/><circle id="Ellipse_1-113" data-name="Ellipse 1-113" class="cls-2" cx="768.91" cy="144.27" r="7.06"/><circle id="Ellipse_1-114" data-name="Ellipse 1-114" class="cls-2" cx="811.28" cy="144.27" r="7.06"/><circle id="Ellipse_1-115" data-name="Ellipse 1-115" class="cls-2" cx="853.65" cy="144.27" r="7.06"/><circle id="Ellipse_1-116" data-name="Ellipse 1-116" class="cls-2" cx="896.02" cy="144.27" r="7.06"/><circle id="Ellipse_1-117" data-name="Ellipse 1-117" class="cls-2" cx="938.39" cy="144.27" r="7.06"/><circle id="Ellipse_1-118" data-name="Ellipse 1-118" class="cls-2" cx="979.76" cy="144.27" r="7.06"/><circle id="Ellipse_1-119" data-name="Ellipse 1-119" class="cls-2" cx="1022.13" cy="144.27" r="7.06"/><circle id="Ellipse_1-120" data-name="Ellipse 1-120" class="cls-2" cx="1064.5" cy="144.27" r="7.06"/><circle id="Ellipse_1-121" data-name="Ellipse 1-121" class="cls-2" cx="1106.87" cy="144.27" r="7.06"/><circle id="Ellipse_1-122" data-name="Ellipse 1-122" class="cls-2" cx="1149.25" cy="144.27" r="7.06"/><circle id="Ellipse_1-123" data-name="Ellipse 1-123" class="cls-2" cx="1191.62" cy="144.27" r="7.06"/><circle id="Ellipse_1-124" data-name="Ellipse 1-124" class="cls-2" cx="1233.99" cy="144.27" r="7.06"/><circle id="Ellipse_1-125" data-name="Ellipse 1-125" class="cls-2" cx="1276.36" cy="144.27" r="7.06"/><circle id="Ellipse_1-126" data-name="Ellipse 1-126" class="cls-2" cx="1318.74" cy="144.27" r="7.06"/><circle id="Ellipse_1-127" data-name="Ellipse 1-127" class="cls-2" cx="1361.11" cy="144.27" r="7.06"/><circle id="Ellipse_1-128" data-name="Ellipse 1-128" class="cls-2" cx="1403.48" cy="144.27" r="7.06"/><circle id="Ellipse_1-129" data-name="Ellipse 1-129" class="cls-2" cx="1445.85" cy="144.27" r="7.06"/><circle id="Ellipse_1-130" data-name="Ellipse 1-130" class="cls-2" cx="1488.22" cy="144.27" r="7.06"/><circle id="Ellipse_1-131" data-name="Ellipse 1-131" class="cls-2" cx="1530.6" cy="144.27" r="7.06"/><circle id="Ellipse_1-132" data-name="Ellipse 1-132" class="cls-2" cx="1571.96" cy="144.27" r="7.06"/><circle id="Ellipse_1-133" data-name="Ellipse 1-133" class="cls-2" cx="1614.33" cy="144.27" r="7.06"/><circle id="Ellipse_1-134" data-name="Ellipse 1-134" class="cls-2" cx="1656.7" cy="144.27" r="7.06"/><circle id="Ellipse_1-135" data-name="Ellipse 1-135" class="cls-2" cx="1699.08" cy="144.27" r="7.06"/><circle id="Ellipse_1-136" data-name="Ellipse 1-136" class="cls-2" cx="1741.45" cy="144.27" r="7.06"/><circle id="Ellipse_1-137" data-name="Ellipse 1-137" class="cls-2" cx="1783.82" cy="144.27" r="7.06"/><circle id="Ellipse_1-138" data-name="Ellipse 1-138" class="cls-2" cx="1826.19" cy="144.27" r="7.06"/><circle id="Ellipse_1-139" data-name="Ellipse 1-139" class="cls-2" cx="1868.57" cy="144.27" r="7.06"/><circle id="Ellipse_1-140" data-name="Ellipse 1-140" class="cls-2" cx="1910.94" cy="144.27" r="7.06"/><circle id="Ellipse_1-141" data-name="Ellipse 1-141" class="cls-2" cx="7.21" cy="178.57" r="7.06"/><circle id="Ellipse_1-142" data-name="Ellipse 1-142" class="cls-2" cx="49.59" cy="178.57" r="7.06"/><circle id="Ellipse_1-143" data-name="Ellipse 1-143" class="cls-2" cx="91.96" cy="178.57" r="7.06"/><circle id="Ellipse_1-144" data-name="Ellipse 1-144" class="cls-2" cx="134.33" cy="178.57" r="7.06"/><circle id="Ellipse_1-145" data-name="Ellipse 1-145" class="cls-2" cx="176.7" cy="178.57" r="7.06"/><circle id="Ellipse_1-146" data-name="Ellipse 1-146" class="cls-2" cx="219.08" cy="178.57" r="7.06"/><circle id="Ellipse_1-147" data-name="Ellipse 1-147" class="cls-2" cx="261.45" cy="178.57" r="7.06"/><circle id="Ellipse_1-148" data-name="Ellipse 1-148" class="cls-2" cx="303.82" cy="178.57" r="7.06"/><circle id="Ellipse_1-149" data-name="Ellipse 1-149" class="cls-2" cx="346.19" cy="178.57" r="7.06"/><circle id="Ellipse_1-150" data-name="Ellipse 1-150" class="cls-2" cx="387.56" cy="178.57" r="7.06"/><circle id="Ellipse_1-151" data-name="Ellipse 1-151" class="cls-2" cx="429.93" cy="178.57" r="7.06"/><circle id="Ellipse_1-152" data-name="Ellipse 1-152" class="cls-2" cx="472.3" cy="178.57" r="7.06"/><circle id="Ellipse_1-153" data-name="Ellipse 1-153" class="cls-2" cx="514.67" cy="178.57" r="7.06"/><circle id="Ellipse_1-154" data-name="Ellipse 1-154" class="cls-2" cx="557.04" cy="178.57" r="7.06"/><circle id="Ellipse_1-155" data-name="Ellipse 1-155" class="cls-2" cx="599.42" cy="178.57" r="7.06"/><circle id="Ellipse_1-156" data-name="Ellipse 1-156" class="cls-2" cx="641.79" cy="178.57" r="7.06"/><circle id="Ellipse_1-157" data-name="Ellipse 1-157" class="cls-2" cx="684.16" cy="178.57" r="7.06"/><circle id="Ellipse_1-158" data-name="Ellipse 1-158" class="cls-2" cx="726.53" cy="178.57" r="7.06"/><circle id="Ellipse_1-159" data-name="Ellipse 1-159" class="cls-2" cx="768.91" cy="178.57" r="7.06"/><circle id="Ellipse_1-160" data-name="Ellipse 1-160" class="cls-2" cx="811.28" cy="178.57" r="7.06"/><circle id="Ellipse_1-161" data-name="Ellipse 1-161" class="cls-2" cx="853.65" cy="178.57" r="7.06"/><circle id="Ellipse_1-162" data-name="Ellipse 1-162" class="cls-2" cx="896.02" cy="178.57" r="7.06"/><circle id="Ellipse_1-163" data-name="Ellipse 1-163" class="cls-2" cx="938.39" cy="178.57" r="7.06"/><circle id="Ellipse_1-164" data-name="Ellipse 1-164" class="cls-2" cx="979.76" cy="178.57" r="7.06"/><circle id="Ellipse_1-165" data-name="Ellipse 1-165" class="cls-2" cx="1022.13" cy="178.57" r="7.06"/><circle id="Ellipse_1-166" data-name="Ellipse 1-166" class="cls-2" cx="1064.5" cy="178.57" r="7.06"/><circle id="Ellipse_1-167" data-name="Ellipse 1-167" class="cls-2" cx="1106.87" cy="178.57" r="7.06"/><circle id="Ellipse_1-168" data-name="Ellipse 1-168" class="cls-2" cx="1149.25" cy="178.57" r="7.06"/><circle id="Ellipse_1-169" data-name="Ellipse 1-169" class="cls-2" cx="1191.62" cy="178.57" r="7.06"/><circle id="Ellipse_1-170" data-name="Ellipse 1-170" class="cls-2" cx="1233.99" cy="178.57" r="7.06"/><circle id="Ellipse_1-171" data-name="Ellipse 1-171" class="cls-2" cx="1276.36" cy="178.57" r="7.06"/><circle id="Ellipse_1-172" data-name="Ellipse 1-172" class="cls-2" cx="1318.74" cy="178.57" r="7.06"/><circle id="Ellipse_1-173" data-name="Ellipse 1-173" class="cls-2" cx="1361.11" cy="178.57" r="7.06"/><circle id="Ellipse_1-174" data-name="Ellipse 1-174" class="cls-2" cx="1403.48" cy="178.57" r="7.06"/><circle id="Ellipse_1-175" data-name="Ellipse 1-175" class="cls-2" cx="1445.85" cy="178.57" r="7.06"/><circle id="Ellipse_1-176" data-name="Ellipse 1-176" class="cls-2" cx="1488.22" cy="178.57" r="7.06"/><circle id="Ellipse_1-177" data-name="Ellipse 1-177" class="cls-2" cx="1530.6" cy="178.57" r="7.06"/><circle id="Ellipse_1-178" data-name="Ellipse 1-178" class="cls-2" cx="1571.96" cy="178.57" r="7.06"/><circle id="Ellipse_1-179" data-name="Ellipse 1-179" class="cls-2" cx="1614.33" cy="178.57" r="7.06"/><circle id="Ellipse_1-180" data-name="Ellipse 1-180" class="cls-2" cx="1656.7" cy="178.57" r="7.06"/><circle id="Ellipse_1-181" data-name="Ellipse 1-181" class="cls-2" cx="1699.08" cy="178.57" r="7.06"/><circle id="Ellipse_1-182" data-name="Ellipse 1-182" class="cls-2" cx="1741.45" cy="178.57" r="7.06"/><circle id="Ellipse_1-183" data-name="Ellipse 1-183" class="cls-2" cx="1783.82" cy="178.57" r="7.06"/><circle id="Ellipse_1-184" data-name="Ellipse 1-184" class="cls-2" cx="1826.19" cy="178.57" r="7.06"/><circle id="Ellipse_1-185" data-name="Ellipse 1-185" class="cls-2" cx="1868.57" cy="178.57" r="7.06"/><circle id="Ellipse_1-186" data-name="Ellipse 1-186" class="cls-2" cx="1910.94" cy="178.57" r="7.06"/><circle id="Ellipse_1-187" data-name="Ellipse 1-187" class="cls-2" cx="7.21" cy="212.87" r="7.06"/><circle id="Ellipse_1-188" data-name="Ellipse 1-188" class="cls-2" cx="49.59" cy="212.87" r="7.06"/><circle id="Ellipse_1-189" data-name="Ellipse 1-189" class="cls-2" cx="91.96" cy="212.87" r="7.06"/><circle id="Ellipse_1-190" data-name="Ellipse 1-190" class="cls-2" cx="134.33" cy="212.87" r="7.06"/><circle id="Ellipse_1-191" data-name="Ellipse 1-191" class="cls-2" cx="176.7" cy="212.87" r="7.06"/><circle id="Ellipse_1-192" data-name="Ellipse 1-192" class="cls-2" cx="219.08" cy="212.87" r="7.06"/><circle id="Ellipse_1-193" data-name="Ellipse 1-193" class="cls-2" cx="261.45" cy="212.87" r="7.06"/><circle id="Ellipse_1-194" data-name="Ellipse 1-194" class="cls-2" cx="303.82" cy="212.87" r="7.06"/><circle id="Ellipse_1-195" data-name="Ellipse 1-195" class="cls-2" cx="346.19" cy="212.87" r="7.06"/><circle id="Ellipse_1-196" data-name="Ellipse 1-196" class="cls-2" cx="387.56" cy="212.87" r="7.06"/><circle id="Ellipse_1-197" data-name="Ellipse 1-197" class="cls-2" cx="429.93" cy="212.87" r="7.06"/><circle id="Ellipse_1-198" data-name="Ellipse 1-198" class="cls-2" cx="472.3" cy="212.87" r="7.06"/><circle id="Ellipse_1-199" data-name="Ellipse 1-199" class="cls-2" cx="514.67" cy="212.87" r="7.06"/><circle id="Ellipse_1-200" data-name="Ellipse 1-200" class="cls-2" cx="557.04" cy="212.87" r="7.06"/><circle id="Ellipse_1-201" data-name="Ellipse 1-201" class="cls-2" cx="599.42" cy="212.87" r="7.06"/><circle id="Ellipse_1-202" data-name="Ellipse 1-202" class="cls-2" cx="641.79" cy="212.87" r="7.06"/><circle id="Ellipse_1-203" data-name="Ellipse 1-203" class="cls-2" cx="684.16" cy="212.87" r="7.06"/><circle id="Ellipse_1-204" data-name="Ellipse 1-204" class="cls-2" cx="726.53" cy="212.87" r="7.06"/><circle id="Ellipse_1-205" data-name="Ellipse 1-205" class="cls-2" cx="768.91" cy="212.87" r="7.06"/><circle id="Ellipse_1-206" data-name="Ellipse 1-206" class="cls-2" cx="811.28" cy="212.87" r="7.06"/><circle id="Ellipse_1-207" data-name="Ellipse 1-207" class="cls-2" cx="853.65" cy="212.87" r="7.06"/><circle id="Ellipse_1-208" data-name="Ellipse 1-208" class="cls-2" cx="896.02" cy="212.87" r="7.06"/><circle id="Ellipse_1-209" data-name="Ellipse 1-209" class="cls-2" cx="938.39" cy="212.87" r="7.06"/><circle id="Ellipse_1-210" data-name="Ellipse 1-210" class="cls-2" cx="979.76" cy="212.87" r="7.06"/><circle id="Ellipse_1-211" data-name="Ellipse 1-211" class="cls-2" cx="1022.13" cy="212.87" r="7.06"/><circle id="Ellipse_1-212" data-name="Ellipse 1-212" class="cls-2" cx="1064.5" cy="212.87" r="7.06"/><circle id="Ellipse_1-213" data-name="Ellipse 1-213" class="cls-2" cx="1106.87" cy="212.87" r="7.06"/><circle id="Ellipse_1-214" data-name="Ellipse 1-214" class="cls-2" cx="1149.25" cy="212.87" r="7.06"/><circle id="Ellipse_1-215" data-name="Ellipse 1-215" class="cls-2" cx="1191.62" cy="212.87" r="7.06"/><circle id="Ellipse_1-216" data-name="Ellipse 1-216" class="cls-2" cx="1233.99" cy="212.87" r="7.06"/><circle id="Ellipse_1-217" data-name="Ellipse 1-217" class="cls-2" cx="1276.36" cy="212.87" r="7.06"/><circle id="Ellipse_1-218" data-name="Ellipse 1-218" class="cls-2" cx="1318.74" cy="212.87" r="7.06"/><circle id="Ellipse_1-219" data-name="Ellipse 1-219" class="cls-2" cx="1361.11" cy="212.87" r="7.06"/><circle id="Ellipse_1-220" data-name="Ellipse 1-220" class="cls-2" cx="1403.48" cy="212.87" r="7.06"/><circle id="Ellipse_1-221" data-name="Ellipse 1-221" class="cls-2" cx="1445.85" cy="212.87" r="7.06"/><circle id="Ellipse_1-222" data-name="Ellipse 1-222" class="cls-2" cx="1488.22" cy="212.87" r="7.06"/><circle id="Ellipse_1-223" data-name="Ellipse 1-223" class="cls-2" cx="1530.6" cy="212.87" r="7.06"/><circle id="Ellipse_1-224" data-name="Ellipse 1-224" class="cls-2" cx="1571.96" cy="212.87" r="7.06"/><circle id="Ellipse_1-225" data-name="Ellipse 1-225" class="cls-2" cx="1614.33" cy="212.87" r="7.06"/><circle id="Ellipse_1-226" data-name="Ellipse 1-226" class="cls-2" cx="1656.7" cy="212.87" r="7.06"/><circle id="Ellipse_1-227" data-name="Ellipse 1-227" class="cls-2" cx="1699.08" cy="212.87" r="7.06"/><circle id="Ellipse_1-228" data-name="Ellipse 1-228" class="cls-2" cx="1741.45" cy="212.87" r="7.06"/><circle id="Ellipse_1-229" data-name="Ellipse 1-229" class="cls-2" cx="1783.82" cy="212.87" r="7.06"/><circle id="Ellipse_1-230" data-name="Ellipse 1-230" class="cls-2" cx="1826.19" cy="212.87" r="7.06"/><circle id="Ellipse_1-231" data-name="Ellipse 1-231" class="cls-2" cx="1868.57" cy="212.87" r="7.06"/><circle id="Ellipse_1-232" data-name="Ellipse 1-232" class="cls-2" cx="1910.94" cy="212.87" r="7.06"/><circle id="Ellipse_1-233" data-name="Ellipse 1-233" class="cls-2" cx="7.21" cy="247.17" r="7.06"/><circle id="Ellipse_1-234" data-name="Ellipse 1-234" class="cls-2" cx="49.59" cy="247.17" r="7.06"/><circle id="Ellipse_1-235" data-name="Ellipse 1-235" class="cls-2" cx="91.96" cy="247.17" r="7.06"/><circle id="Ellipse_1-236" data-name="Ellipse 1-236" class="cls-2" cx="134.33" cy="247.17" r="7.06"/><circle id="Ellipse_1-237" data-name="Ellipse 1-237" class="cls-2" cx="176.7" cy="247.17" r="7.06"/><circle id="Ellipse_1-238" data-name="Ellipse 1-238" class="cls-2" cx="219.08" cy="247.17" r="7.06"/><circle id="Ellipse_1-239" data-name="Ellipse 1-239" class="cls-2" cx="261.45" cy="247.17" r="7.06"/><circle id="Ellipse_1-240" data-name="Ellipse 1-240" class="cls-2" cx="303.82" cy="247.17" r="7.06"/><circle id="Ellipse_1-241" data-name="Ellipse 1-241" class="cls-2" cx="346.19" cy="247.17" r="7.06"/><circle id="Ellipse_1-242" data-name="Ellipse 1-242" class="cls-2" cx="387.56" cy="247.17" r="7.06"/><circle id="Ellipse_1-243" data-name="Ellipse 1-243" class="cls-2" cx="429.93" cy="247.17" r="7.06"/><circle id="Ellipse_1-244" data-name="Ellipse 1-244" class="cls-2" cx="472.3" cy="247.17" r="7.06"/><circle id="Ellipse_1-245" data-name="Ellipse 1-245" class="cls-2" cx="514.67" cy="247.17" r="7.06"/><circle id="Ellipse_1-246" data-name="Ellipse 1-246" class="cls-2" cx="557.04" cy="247.17" r="7.06"/><circle id="Ellipse_1-247" data-name="Ellipse 1-247" class="cls-2" cx="599.42" cy="247.17" r="7.06"/><circle id="Ellipse_1-248" data-name="Ellipse 1-248" class="cls-2" cx="641.79" cy="247.17" r="7.06"/><circle id="Ellipse_1-249" data-name="Ellipse 1-249" class="cls-2" cx="684.16" cy="247.17" r="7.06"/><circle id="Ellipse_1-250" data-name="Ellipse 1-250" class="cls-2" cx="726.53" cy="247.17" r="7.06"/><circle id="Ellipse_1-251" data-name="Ellipse 1-251" class="cls-2" cx="768.91" cy="247.17" r="7.06"/><circle id="Ellipse_1-252" data-name="Ellipse 1-252" class="cls-2" cx="811.28" cy="247.17" r="7.06"/><circle id="Ellipse_1-253" data-name="Ellipse 1-253" class="cls-2" cx="853.65" cy="247.17" r="7.06"/><circle id="Ellipse_1-254" data-name="Ellipse 1-254" class="cls-2" cx="896.02" cy="247.17" r="7.06"/><circle id="Ellipse_1-255" data-name="Ellipse 1-255" class="cls-2" cx="938.39" cy="247.17" r="7.06"/><circle id="Ellipse_1-256" data-name="Ellipse 1-256" class="cls-2" cx="979.76" cy="247.17" r="7.06"/><circle id="Ellipse_1-257" data-name="Ellipse 1-257" class="cls-2" cx="1022.13" cy="247.17" r="7.06"/><circle id="Ellipse_1-258" data-name="Ellipse 1-258" class="cls-2" cx="1064.5" cy="247.17" r="7.06"/><circle id="Ellipse_1-259" data-name="Ellipse 1-259" class="cls-2" cx="1106.87" cy="247.17" r="7.06"/><circle id="Ellipse_1-260" data-name="Ellipse 1-260" class="cls-2" cx="1149.25" cy="247.17" r="7.06"/><circle id="Ellipse_1-261" data-name="Ellipse 1-261" class="cls-2" cx="1191.62" cy="247.17" r="7.06"/><circle id="Ellipse_1-262" data-name="Ellipse 1-262" class="cls-2" cx="1233.99" cy="247.17" r="7.06"/><circle id="Ellipse_1-263" data-name="Ellipse 1-263" class="cls-2" cx="1276.36" cy="247.17" r="7.06"/><circle id="Ellipse_1-264" data-name="Ellipse 1-264" class="cls-2" cx="1318.74" cy="247.17" r="7.06"/><circle id="Ellipse_1-265" data-name="Ellipse 1-265" class="cls-2" cx="1361.11" cy="247.17" r="7.06"/><circle id="Ellipse_1-266" data-name="Ellipse 1-266" class="cls-2" cx="1403.48" cy="247.17" r="7.06"/><circle id="Ellipse_1-267" data-name="Ellipse 1-267" class="cls-2" cx="1445.85" cy="247.17" r="7.06"/><circle id="Ellipse_1-268" data-name="Ellipse 1-268" class="cls-2" cx="1488.22" cy="247.17" r="7.06"/><circle id="Ellipse_1-269" data-name="Ellipse 1-269" class="cls-2" cx="1530.6" cy="247.17" r="7.06"/><circle id="Ellipse_1-270" data-name="Ellipse 1-270" class="cls-2" cx="1571.96" cy="247.17" r="7.06"/><circle id="Ellipse_1-271" data-name="Ellipse 1-271" class="cls-2" cx="1614.33" cy="247.17" r="7.06"/><circle id="Ellipse_1-272" data-name="Ellipse 1-272" class="cls-2" cx="1656.7" cy="247.17" r="7.06"/><circle id="Ellipse_1-273" data-name="Ellipse 1-273" class="cls-2" cx="1699.08" cy="247.17" r="7.06"/><circle id="Ellipse_1-274" data-name="Ellipse 1-274" class="cls-2" cx="1741.45" cy="247.17" r="7.06"/><circle id="Ellipse_1-275" data-name="Ellipse 1-275" class="cls-2" cx="1783.82" cy="247.17" r="7.06"/><circle id="Ellipse_1-276" data-name="Ellipse 1-276" class="cls-2" cx="1826.19" cy="247.17" r="7.06"/><circle id="Ellipse_1-277" data-name="Ellipse 1-277" class="cls-2" cx="1868.57" cy="247.17" r="7.06"/><circle id="Ellipse_1-278" data-name="Ellipse 1-278" class="cls-2" cx="1910.94" cy="247.17" r="7.06"/><circle id="Ellipse_1-279" data-name="Ellipse 1-279" class="cls-2" cx="7.21" cy="281.47" r="7.06"/><circle id="Ellipse_1-280" data-name="Ellipse 1-280" class="cls-2" cx="49.59" cy="281.47" r="7.06"/><circle id="Ellipse_1-281" data-name="Ellipse 1-281" class="cls-2" cx="91.96" cy="281.47" r="7.06"/><circle id="Ellipse_1-282" data-name="Ellipse 1-282" class="cls-2" cx="134.33" cy="281.47" r="7.06"/><circle id="Ellipse_1-283" data-name="Ellipse 1-283" class="cls-2" cx="176.7" cy="281.47" r="7.06"/><circle id="Ellipse_1-284" data-name="Ellipse 1-284" class="cls-2" cx="219.08" cy="281.47" r="7.06"/><circle id="Ellipse_1-285" data-name="Ellipse 1-285" class="cls-2" cx="261.45" cy="281.47" r="7.06"/><circle id="Ellipse_1-286" data-name="Ellipse 1-286" class="cls-2" cx="303.82" cy="281.47" r="7.06"/><circle id="Ellipse_1-287" data-name="Ellipse 1-287" class="cls-2" cx="346.19" cy="281.47" r="7.06"/><circle id="Ellipse_1-288" data-name="Ellipse 1-288" class="cls-2" cx="387.56" cy="281.47" r="7.06"/><circle id="Ellipse_1-289" data-name="Ellipse 1-289" class="cls-2" cx="429.93" cy="281.47" r="7.06"/><circle id="Ellipse_1-290" data-name="Ellipse 1-290" class="cls-2" cx="472.3" cy="281.47" r="7.06"/><circle id="Ellipse_1-291" data-name="Ellipse 1-291" class="cls-2" cx="514.67" cy="281.47" r="7.06"/><circle id="Ellipse_1-292" data-name="Ellipse 1-292" class="cls-2" cx="557.04" cy="281.47" r="7.06"/><circle id="Ellipse_1-293" data-name="Ellipse 1-293" class="cls-2" cx="599.42" cy="281.47" r="7.06"/><circle id="Ellipse_1-294" data-name="Ellipse 1-294" class="cls-2" cx="641.79" cy="281.47" r="7.06"/><circle id="Ellipse_1-295" data-name="Ellipse 1-295" class="cls-2" cx="684.16" cy="281.47" r="7.06"/><circle id="Ellipse_1-296" data-name="Ellipse 1-296" class="cls-2" cx="726.53" cy="281.47" r="7.06"/><circle id="Ellipse_1-297" data-name="Ellipse 1-297" class="cls-2" cx="768.91" cy="281.47" r="7.06"/><circle id="Ellipse_1-298" data-name="Ellipse 1-298" class="cls-2" cx="811.28" cy="281.47" r="7.06"/><circle id="Ellipse_1-299" data-name="Ellipse 1-299" class="cls-2" cx="853.65" cy="281.47" r="7.06"/><circle id="Ellipse_1-300" data-name="Ellipse 1-300" class="cls-2" cx="896.02" cy="281.47" r="7.06"/><circle id="Ellipse_1-301" data-name="Ellipse 1-301" class="cls-2" cx="938.39" cy="281.47" r="7.06"/><circle id="Ellipse_1-302" data-name="Ellipse 1-302" class="cls-2" cx="979.76" cy="281.47" r="7.06"/><circle id="Ellipse_1-303" data-name="Ellipse 1-303" class="cls-2" cx="1022.13" cy="281.47" r="7.06"/><circle id="Ellipse_1-304" data-name="Ellipse 1-304" class="cls-2" cx="1064.5" cy="281.47" r="7.06"/><circle id="Ellipse_1-305" data-name="Ellipse 1-305" class="cls-2" cx="1106.87" cy="281.47" r="7.06"/><circle id="Ellipse_1-306" data-name="Ellipse 1-306" class="cls-2" cx="1149.25" cy="281.47" r="7.06"/><circle id="Ellipse_1-307" data-name="Ellipse 1-307" class="cls-2" cx="1191.62" cy="281.47" r="7.06"/><circle id="Ellipse_1-308" data-name="Ellipse 1-308" class="cls-2" cx="1233.99" cy="281.47" r="7.06"/><circle id="Ellipse_1-309" data-name="Ellipse 1-309" class="cls-2" cx="1276.36" cy="281.47" r="7.06"/><circle id="Ellipse_1-310" data-name="Ellipse 1-310" class="cls-2" cx="1318.74" cy="281.47" r="7.06"/><circle id="Ellipse_1-311" data-name="Ellipse 1-311" class="cls-2" cx="1361.11" cy="281.47" r="7.06"/><circle id="Ellipse_1-312" data-name="Ellipse 1-312" class="cls-2" cx="1403.48" cy="281.47" r="7.06"/><circle id="Ellipse_1-313" data-name="Ellipse 1-313" class="cls-2" cx="1445.85" cy="281.47" r="7.06"/><circle id="Ellipse_1-314" data-name="Ellipse 1-314" class="cls-2" cx="1488.22" cy="281.47" r="7.06"/><circle id="Ellipse_1-315" data-name="Ellipse 1-315" class="cls-2" cx="1530.6" cy="281.47" r="7.06"/><circle id="Ellipse_1-316" data-name="Ellipse 1-316" class="cls-2" cx="1571.96" cy="281.47" r="7.06"/><circle id="Ellipse_1-317" data-name="Ellipse 1-317" class="cls-2" cx="1614.33" cy="281.47" r="7.06"/><circle id="Ellipse_1-318" data-name="Ellipse 1-318" class="cls-2" cx="1656.7" cy="281.47" r="7.06"/><circle id="Ellipse_1-319" data-name="Ellipse 1-319" class="cls-2" cx="1699.08" cy="281.47" r="7.06"/><circle id="Ellipse_1-320" data-name="Ellipse 1-320" class="cls-2" cx="1741.45" cy="281.47" r="7.06"/><circle id="Ellipse_1-321" data-name="Ellipse 1-321" class="cls-2" cx="1783.82" cy="281.47" r="7.06"/><circle id="Ellipse_1-322" data-name="Ellipse 1-322" class="cls-2" cx="1826.19" cy="281.47" r="7.06"/><circle id="Ellipse_1-323" data-name="Ellipse 1-323" class="cls-2" cx="1868.57" cy="281.47" r="7.06"/><circle id="Ellipse_1-324" data-name="Ellipse 1-324" class="cls-2" cx="1910.94" cy="281.47" r="7.06"/></g><g class="cls-3"><g id="Repeat_Grid_1" data-name="Repeat Grid 1"><g id="Component_1_1" data-name="Component 1 1"><path id="Path_1" data-name="Path 1" class="cls-4" d="M-.15,995.62l1920-173.33v260H-.15Z" transform="translate(0.15 -791.75)"/><path id="Path_4" data-name="Path 4" class="cls-5" d="M453.85,1082.29,742.5,929.1l553.35,153.19Z" transform="translate(0.15 -791.75)"/><path id="Path_5" data-name="Path 5" class="cls-6" d="M1287.85,1080.29,1436,866.47l-693.5,62.6Z" transform="translate(0.15 -791.75)"/><path id="Path_6" data-name="Path 6" class="cls-7" d="M1437.13,866.51,1918.51,1081l-632.66,1.34Z" transform="translate(0.15 -791.75)"/><path id="Path_7" data-name="Path 7" class="cls-8" d="M30.52,990.29" transform="translate(0.15 -791.75)"/></g></g></g></svg>